<svg width="40" height="40" viewBox="0 0 40 40" fill="none" xmlns="http://www.w3.org/2000/svg">
<path d="M17.0001 23.75H16.9532C16.9532 23 17.047 23.375 12.9688 15.2656C12.5938 14.4219 11.797 14 10.9532 14C10.1563 14 9.35946 14.4219 8.98446 15.2656C4.85946 23.4219 5.00008 23.0469 5.00008 23.75C5.00008 25.8594 7.67196 27.5 11.0001 27.5C14.2813 27.5 17.0001 25.8594 17.0001 23.75ZM8.89071 20.4688C9.40633 19.3906 10.1095 18.0312 10.9532 16.2969V16.25H11.0001C11.8907 18.125 12.6407 19.5312 13.1563 20.6094C13.672 21.6875 14.0938 22.4844 14.3751 23H7.57821C7.90633 22.4375 8.32821 21.5938 8.89071 20.4688ZM29.7501 29.75H21.1251V15.3125C22.3907 14.9375 23.3751 13.8594 23.6563 12.5H29.7501C30.1251 12.5 30.5001 12.1719 30.5001 11.75V11C30.5001 10.625 30.1251 10.25 29.7501 10.25H23.422C22.8126 8.9375 21.5001 8 20.0001 8C18.4532 8 17.1407 8.9375 16.5313 10.25H10.2501C9.82821 10.25 9.50008 10.625 9.50008 11V11.75C9.50008 12.1719 9.82821 12.5 10.2501 12.5H16.297C16.5782 13.8594 17.5626 14.9375 18.8751 15.3125V29.75H10.2501C9.82821 29.75 9.50008 30.125 9.50008 30.5V31.25C9.50008 31.6719 9.82821 32 10.2501 32H29.7501C30.1251 32 30.5001 31.6719 30.5001 31.25V30.5C30.5001 30.125 30.1251 29.75 29.7501 29.75ZM20.0001 13.25C19.1563 13.25 18.5001 12.5938 18.5001 11.75C18.5001 10.9531 19.1563 10.25 20.0001 10.25C20.797 10.25 21.5001 10.9531 21.5001 11.75C21.5001 12.5938 20.797 13.25 20.0001 13.25ZM34.9532 23.75C34.9532 23 35.047 23.375 30.9688 15.2656C30.5938 14.4219 29.797 14 28.9532 14C28.1563 14 27.3595 14.4219 26.9845 15.2656C22.8595 23.4219 23.0001 23.0469 23.0001 23.75C23.0001 25.8594 25.672 27.5 29.0001 27.5C32.2813 27.5 35.0001 25.8594 35.0001 23.75H34.9532ZM25.5782 23C25.9063 22.4375 26.3282 21.5938 26.8907 20.4688C27.4063 19.3906 28.1095 18.0312 28.9532 16.2969V16.25H29.0001C29.8907 18.125 30.6407 19.5312 31.1563 20.6094C31.672 21.6875 32.0938 22.4844 32.3751 23H25.5782Z" fill="white"/>
<path d="M29.7495 29.75H21.1245V15.3125C22.3901 14.9375 23.3745 13.8594 23.6558 12.5H29.7495C30.1245 12.5 30.4995 12.1719 30.4995 11.75V11C30.4995 10.625 30.1245 10.25 29.7495 10.25H23.4214C22.812 8.9375 21.4995 8 19.9995 8C18.4526 8 17.1401 8.9375 16.5308 10.25H10.2495C9.82764 10.25 9.49951 10.625 9.49951 11V11.75C9.49951 12.1719 9.82764 12.5 10.2495 12.5H16.2964C16.5776 13.8594 17.562 14.9375 18.8745 15.3125V29.75H10.2495C9.82764 29.75 9.49951 30.125 9.49951 30.5V31.25C9.49951 31.6719 9.82764 32 10.2495 32H29.7495C30.1245 32 30.4995 31.6719 30.4995 31.25V30.5C30.4995 30.125 30.1245 29.75 29.7495 29.75ZM19.9995 13.25C19.1558 13.25 18.4995 12.5938 18.4995 11.75C18.4995 10.9531 19.1558 10.25 19.9995 10.25C20.7964 10.25 21.4995 10.9531 21.4995 11.75C21.4995 12.5938 20.7964 13.25 19.9995 13.25Z" fill="white"/>
</svg>
