<svg width="40" height="40" viewBox="0 0 40 40" fill="none" xmlns="http://www.w3.org/2000/svg">
<path d="M21 10.1719C21 10.1719 20 8 17.2344 8C15.7812 8 14.4688 8.84375 13.8125 10.1094C12.0312 10.4375 10.6719 11.9844 10.625 13.8594C9.35938 14.7031 8.60938 16.1094 8.60938 17.6562C8.60938 17.9844 8.65625 18.3594 8.75 18.7344C7.76562 19.5781 7.25 20.7969 7.25 22.0625C7.25 23.6094 8 25.0156 9.26562 25.8594C9.3125 28.0625 11.0938 29.8906 13.2969 29.9844C14.0469 31.25 15.4062 32 16.9062 32C18.125 32 19 32 21 29.9844C21.0469 23.7969 20.9531 17 21 10.1719ZM18.8281 27.8281C18.8281 28.9063 17.9844 29.75 16.9062 29.75C15.3594 29.75 15.0312 28.3906 14.75 27.5469L13.8125 27.6875C12.6875 27.875 11.5625 26.9844 11.5625 25.8125C11.5625 25.6719 11.75 24.5 11.75 24.5L10.9062 24.1719C9.17188 23.4688 8.98438 21.0781 10.6719 20.0938L11.5625 19.5781L11.0938 18.6406C10.2969 16.9531 11.6562 15.7812 12.2656 15.5469L13.1562 15.1719C12.9219 14.1406 12.9219 14.0937 12.9219 13.9062C12.9219 13.0156 13.625 12.3125 14.4219 12.3125L15.4531 12.3594L15.6875 11.4688C15.875 10.7656 16.5312 10.2969 17.2344 10.2969C18.125 10.2969 18.8281 11 18.8281 11.8906V27.8281Z" fill="white"/>
<rect x="21" y="18" width="10" height="2" fill="white"/>
<rect x="21" y="25" width="5" height="2" fill="white"/>
<rect x="21" y="12" width="3" height="2" fill="white"/>
<circle cx="26" cy="13" r="2" fill="white" stroke="white" stroke-width="2"/>
<circle cx="33" cy="19" r="2" fill="white" stroke="white" stroke-width="2"/>
<circle cx="28" cy="26" r="2" fill="white" stroke="white" stroke-width="2"/>
<rect x="15" y="16" width="4" height="3" fill="white"/>
<rect x="13" y="22" width="6" height="3" fill="white"/>
</svg>
