<svg width="40" height="40" viewBox="0 0 40 40" fill="none" xmlns="http://www.w3.org/2000/svg">
<path d="M23.5625 16.3906C23.375 16.2031 23.0938 16.2031 22.9062 16.3906L18.8281 20.4219L17.0469 18.6406C16.8594 18.4531 16.5781 18.4531 16.3906 18.6406L15.3125 19.7188C15.125 19.9062 15.125 20.2344 15.3125 20.375L18.5 23.6094C18.6406 23.7969 18.9688 23.7969 19.1562 23.6094L24.6406 18.125C24.8281 17.9375 24.8281 17.6562 24.6406 17.4688L23.5625 16.3906ZM32 20C32 18.3125 31.1094 16.8125 29.7969 15.9688C30.125 14.4219 29.6562 12.7344 28.4844 11.5156C27.2656 10.3438 25.5781 9.875 24.0312 10.2031C23.1875 8.89062 21.6875 8 20 8C18.2656 8 16.7656 8.89062 15.9219 10.2031C14.375 9.875 12.6875 10.3438 11.5156 11.5156C10.2969 12.7344 9.82812 14.4219 10.1562 15.9688C8.84375 16.8125 8 18.3125 8 20C8 21.7344 8.84375 23.2344 10.1562 24.0781C9.82812 25.625 10.2969 27.3125 11.5156 28.4844C12.6875 29.7031 14.375 30.1719 15.9219 29.8438C16.7656 31.1562 18.2656 32 20 32C21.6875 32 23.1875 31.1562 24.0312 29.8438C25.5781 30.1719 27.2656 29.7031 28.4844 28.4844C29.6562 27.3125 30.125 25.625 29.7969 24.0781C31.1094 23.2344 32 21.7344 32 20ZM26.8906 22.9062C27.3125 23.8438 28.3438 25.4844 26.8906 26.9375C25.5781 28.25 24.2656 27.5938 22.8594 26.9375C22.4844 27.9219 22.0156 29.75 20 29.75C17.8438 29.75 17.4219 27.7812 17.0938 26.9375C16.1094 27.4062 14.5156 28.3438 13.0625 26.8906C11.5625 25.3906 12.6875 23.7031 13.0625 22.9062C12.0781 22.5312 10.25 22.0625 10.25 20C10.25 17.8906 12.2188 17.4688 13.0625 17.1406C12.6406 16.2031 11.6562 14.5625 13.1094 13.1094C14.6094 11.6094 16.2969 12.7344 17.0938 13.1094C17.4688 12.125 17.9375 10.25 20 10.25C22.1094 10.25 22.5312 12.2656 22.8594 13.1094C23.7969 12.6875 25.4375 11.7031 26.8906 13.1562C28.3906 14.6562 27.2656 16.3438 26.8906 17.1406C27.875 17.5156 29.7031 17.9844 29.7031 20.0469C29.7031 22.1562 27.7344 22.5781 26.8906 22.9062Z" fill="white"/>
<path d="M23.5625 16.3906C23.375 16.2031 23.0938 16.2031 22.9062 16.3906L18.8281 20.4219L17.0469 18.6406C16.8594 18.4531 16.5781 18.4531 16.3906 18.6406L15.3125 19.7188C15.125 19.9062 15.125 20.2344 15.3125 20.375L18.5 23.6094C18.6406 23.7969 18.9688 23.7969 19.1562 23.6094L24.6406 18.125C24.8281 17.9375 24.8281 17.6562 24.6406 17.4688L23.5625 16.3906Z" fill="white"/>
</svg>
