<svg width="40" height="40" viewBox="0 0 40 40" fill="none" xmlns="http://www.w3.org/2000/svg">
<path d="M23 10.25C26.7031 10.25 29.75 13.2969 29.75 17C29.75 20.75 26.7031 23.75 23 23.75C22.1094 23.75 21.2188 23.6094 20.4688 23.2812L18.5 25.25H17V27.5H14.75V29.75H10.25V25.25L16.5312 18.9688C16.3438 18.4531 16.25 17.5625 16.25 17.0469V17C16.25 13.2969 19.25 10.25 23 10.25ZM23 8C17.9844 8 14 12.0312 14 17C14 17.4219 14 17.8438 14.0469 18.2656L8.32812 24.0312C8.14062 24.1719 8 24.5469 8 24.8281V30.875C8 31.5312 8.46875 32 9.125 32H15.875C16.4844 32 17 31.5312 17 30.875V29.75H18.125C18.7344 29.75 19.25 29.2812 19.25 28.625V27.6875L21.125 25.8125C21.7344 25.9531 22.3438 26 23 26C27.9688 26 32 22.0156 32 17C32 12.0312 27.9688 8 23 8Z" fill="white"/>
<path d="M20 17C20 18.6875 21.3125 20 23 20C24.625 20 26 18.6875 26 17C26 15.375 24.625 14 23 14C21.3125 14 20 15.375 20 17Z" fill="white"/>
</svg>
