<svg width="40" height="40" viewBox="0 0 40 40" fill="none" xmlns="http://www.w3.org/2000/svg">
<path d="M20 27.3125C20.7031 27.3125 21.3125 26.75 21.3125 26V23C21.3125 22.2969 20.7031 21.6875 20 21.6875C19.25 21.6875 18.6875 22.2969 18.6875 23V26C18.6875 26.75 19.25 27.3125 20 27.3125ZM30.5 19.25C30.5 18.0312 29.4688 17 28.25 17H26.75V14.8438C26.75 11.0938 23.75 8.04688 20 8C16.25 8 13.25 11.0469 13.25 14.75V17H11.75C10.4844 17 9.5 18.0312 9.5 19.25V29.75C9.5 31.0156 10.4844 32 11.75 32H28.25C29.4688 32 30.5 31.0156 30.5 29.75V19.25ZM15.5 17V14.75C15.5 12.3125 17.5156 10.25 20 10.25C22.4375 10.25 24.5 12.3125 24.5 14.75V17H15.5ZM28.25 19.25V29.75H11.75V19.25H28.25Z" fill="white"/>
<path d="M30.5 19.25C30.5 18.0312 29.4688 17 28.25 17H26.75C20 16.9994 20.5 17.0006 13.25 17H11.75C10.4844 17 9.5 18.0312 9.5 19.25V29.75C9.5 31.0156 10.4844 32 11.75 32H28.25C29.4688 32 30.5 31.0156 30.5 29.75V19.25ZM28.25 19.25V29.75H11.75V19.25H28.25Z" fill="white"/>
</svg>
